HIERARCHY
ROOT Hips
{
	OFFSET 54.209599 -31.445715 95.706192
	CHANNELS 6 Xposition Yposition Zposition Xrotation Yrotation Zrotation
	JOINT spine
	{
		OFFSET 0.000000 -0.458069 7.965683
		CHANNELS 3 Xrotation Yrotation Zrotation
		JOINT spine1
		{
			OFFSET 0.000000 -0.000002 10.243103
			CHANNELS 3 Xrotation Yrotation Zrotation
			JOINT spine2
			{
				OFFSET 0.000000 -0.000002 9.814751
				CHANNELS 3 Xrotation Yrotation Zrotation
				JOINT Neck
				{
					OFFSET 0.000000 -1.201384 25.198616
					CHANNELS 3 Xrotation Yrotation Zrotation
					JOINT Head
					{
						OFFSET 0.000000 -0.000004 7.613144
						CHANNELS 3 Xrotation Yrotation Zrotation
						End Site
						{
							OFFSET 0.000000 6.077328 18.428101
						}
					}
				}
				JOINT RightShoulder
				{
					OFFSET -4.132702 0.575451 10.599205
					CHANNELS 3 Xrotation Yrotation Zrotation
					JOINT RightArm
					{
						OFFSET 0.000000 -0.000004 13.901794
						CHANNELS 3 Xrotation Yrotation Zrotation
						JOINT RightArmRoll
						{
							OFFSET 0.000000 0.000000 7.017883
							CHANNELS 3 Xrotation Yrotation Zrotation
							JOINT RightForeArm
							{
								OFFSET 0.000000 -0.000004 20.440598
								CHANNELS 3 Xrotation Yrotation Zrotation
								JOINT RightForeArmRoll
								{
									OFFSET 0.000000 -0.000002 7.875153
									CHANNELS 3 Xrotation Yrotation Zrotation
									JOINT RightHand
									{
										OFFSET 0.000000 -0.000002 15.803696
										CHANNELS 3 Xrotation Yrotation Zrotation
										End Site
										{
											OFFSET 0.000000 0.000000 0.100006
										}
									}
								}
							}
						}
					}
				}
				JOINT LeftShoulder
				{
					OFFSET 4.132702 0.575451 10.599205
					CHANNELS 3 Xrotation Yrotation Zrotation
					JOINT LeftArm
					{
						OFFSET 0.000000 -0.000004 13.901794
						CHANNELS 3 Xrotation Yrotation Zrotation
						JOINT LeftArmRoll
						{
							OFFSET 0.000000 0.000000 7.017883
							CHANNELS 3 Xrotation Yrotation Zrotation
							JOINT LeftForeArm
							{
								OFFSET 0.000000 -0.000004 20.440598
								CHANNELS 3 Xrotation Yrotation Zrotation
								JOINT LeftForeArmRoll
								{
									OFFSET 0.000000 -0.000002 7.875153
									CHANNELS 3 Xrotation Yrotation Zrotation
									JOINT LeftHand
									{
										OFFSET 0.000000 -0.000002 15.803696
										CHANNELS 3 Xrotation Yrotation Zrotation
										End Site
										{
											OFFSET 0.000000 0.000000 0.100006
										}
									}
								}
							}
						}
					}
				}
			}
		}
	}
	JOINT RightUpLeg
	{
		OFFSET -7.060482 1.086100 -1.294701
		CHANNELS 3 Xrotation Yrotation Zrotation
		JOINT RightUpLegRoll
		{
			OFFSET 0.000000 -0.000004 18.530800
			CHANNELS 3 Xrotation Yrotation Zrotation
			JOINT RightLeg
			{
				OFFSET 0.000000 0.000004 -22.947601
				CHANNELS 3 Xrotation Yrotation Zrotation
				JOINT RightLegRoll
				{
					OFFSET 0.000000 -0.000004 23.022598
					CHANNELS 3 Xrotation Yrotation Zrotation
					JOINT RightFoot
					{
						OFFSET 0.000000 -0.000002 19.162506
						CHANNELS 3 Xrotation Yrotation Zrotation
						JOINT RightToeBase
						{
							OFFSET 0.000000 -0.000004 16.018799
							CHANNELS 3 Xrotation Yrotation Zrotation
							End Site
							{
								OFFSET 0.006790 0.894207 7.757828
							}
						}
					}
				}
			}
		}
	}
	JOINT LeftUpLeg
	{
		OFFSET 7.060482 1.086100 -1.294701
		CHANNELS 3 Xrotation Yrotation Zrotation
		JOINT LeftUpLegRoll
		{
			OFFSET 0.000000 -0.000004 18.530899
			CHANNELS 3 Xrotation Yrotation Zrotation
			JOINT LeftLeg
			{
				OFFSET 0.000000 -0.000004 22.947502
				CHANNELS 3 Xrotation Yrotation Zrotation
				JOINT LeftLegRoll
				{
					OFFSET 0.000000 -0.000004 23.235504
					CHANNELS 3 Xrotation Yrotation Zrotation
					JOINT LeftFoot
					{
						OFFSET 0.000000 -0.000002 18.949600
						CHANNELS 3 Xrotation Yrotation Zrotation
						JOINT LeftToeBase
						{
							OFFSET 0.000000 -0.000004 16.018799
							CHANNELS 3 Xrotation Yrotation Zrotation
							End Site
							{
								OFFSET -0.030430 0.894207 7.757812
							}
						}
					}
				}
			}
		}
	}
}
MOTION
Frames: 5
Frame Time: 0.041667
54.293709 12.815889 56.809883 2.347884 -5.520211 5.993484 -0.420365 0.889037 -0.911922 3.176579 1.764887 -1.822223 4.821636 1.742984 -1.843513 12.464697 5.346573 -3.259196 4.500534 -4.723278 -2.887462 -1.504723 -63.470612 -2.304702 -59.967456 -128.538314 -75.315355 0.000000 0.000003 -0.000009 44.495216 -17.420215 5.218646 -0.000001 0.000009 -3.011899 -4.999747 -7.998919 -0.000013 -8.887894 70.113128 11.198048 106.431798 51.817005 -88.816993 0.000004 0.000003 0.000001 41.531720 22.129883 -7.310998 0.000007 -0.000009 3.014131 -4.999678 7.999512 0.000218 -89.965708 -168.713350 -7.898513 179.999991 0.000005 -0.730006 97.898932 7.101811 1.444070 -0.000008 0.000003 1.039110 62.516291 3.802514 9.333109 25.459452 -7.351847 0.003800 -86.832058 179.311973 -2.930532 0.000011 -0.000005 -1.382850 -84.317388 -1.570310 1.352942 -0.000003 -0.000000 -1.670040 63.269244 -5.616691 -5.349709 25.457662 7.355616 -0.001123 
54.295902 12.814489 56.811584 2.367166 -5.523901 5.995545 -0.422742 0.889310 -0.911822 3.171840 1.766362 -1.822278 4.816900 1.744452 -1.843561 12.471668 5.353306 -3.258771 4.501530 -4.731226 -2.885856 -1.506588 -63.462382 -2.305940 -59.950736 -128.532713 -75.300944 0.000000 0.000003 -0.000006 44.477102 -17.427001 5.220491 -0.000000 0.000008 -3.011899 -4.999751 -7.998917 -0.000014 -8.874525 70.122984 11.183798 106.395216 51.827827 -88.772351 0.000005 0.000006 0.000003 41.545623 22.141641 -7.319296 0.000008 -0.000007 3.014131 -4.999677 7.999507 0.000218 -89.988555 -168.713309 -7.901976 179.999991 0.000005 -0.730006 97.895640 7.101115 1.444310 -0.000007 0.000003 1.040350 62.520949 3.805001 9.328083 25.459453 -7.351850 0.003801 -86.838622 179.311904 -2.933887 0.000011 -0.000005 -1.382550 -84.305442 -1.566470 1.356515 -0.000003 -0.000000 -1.670080 63.269497 -5.616407 -5.350128 25.457664 7.355618 -0.001124 
54.289204 12.816484 56.802685 2.385595 -5.528544 5.997493 -0.424986 0.889718 -0.911726 3.167370 1.768127 -1.822337 4.812430 1.746217 -1.843623 12.479052 5.360617 -3.258463 4.502339 -4.739786 -2.884297 -1.507778 -63.453974 -2.306368 -59.933892 -128.527044 -75.286231 -0.000000 0.000003 -0.000004 44.458029 -17.433899 5.222317 -0.000000 0.000005 -3.011901 -4.999747 -7.998918 -0.000015 -8.861509 70.133120 11.169937 106.357233 51.838622 -88.726821 0.000005 0.000003 0.000003 41.557818 22.153336 -7.327317 0.000007 -0.000006 3.014132 -4.999677 7.999512 0.000220 -90.010890 -168.712994 -7.905978 179.999991 0.000006 -0.730006 97.892382 7.100697 1.445554 -0.000008 0.000004 1.041629 62.525628 3.807586 9.322874 25.459448 -7.351847 0.003799 -86.843478 179.312150 -2.938049 0.000011 -0.000004 -1.382300 -84.293011 -1.562360 1.360479 -0.000003 0.000000 -1.670119 63.269955 -5.616133 -5.350639 25.457660 7.355613 -0.001122 
54.286507 12.817984 56.801586 2.403408 -5.533838 5.999385 -0.427131 0.890220 -0.911631 3.163101 1.770112 -1.822416 4.808164 1.748191 -1.843707 12.486644 5.368324 -3.258235 4.503028 -4.748784 -2.882775 -1.508489 -63.445368 -2.306228 -59.917151 -128.521443 -75.271403 -0.000001 0.000003 -0.000006 44.438146 -17.440953 5.224022 -0.000003 0.000009 -3.011898 -4.999754 -7.998924 -0.000014 -8.848619 70.143249 11.156238 106.321505 51.848564 -88.684836 0.000001 0.000003 0.000001 41.569006 22.165096 -7.335283 0.000006 -0.000007 3.014130 -4.999678 7.999511 0.000220 -90.032869 -168.712544 -7.910555 179.999991 0.000005 -0.730005 97.889144 7.100542 1.446764 -0.000007 0.000004 1.042950 62.530416 3.810229 9.317607 25.459452 -7.351847 0.003799 -86.847160 179.312669 -2.943310 0.000011 -0.000005 -1.382080 -84.280225 -1.558063 1.364641 -0.000003 0.000000 -1.670180 63.270706 -5.615799 -5.351121 25.457660 7.355616 -0.001123 
54.295902 12.813883 56.811584 2.420889 -5.539503 6.001242 -0.429222 0.890774 -0.911536 3.158933 1.772216 -1.822502 4.803997 1.750294 -1.843796 12.494447 5.376260 -3.258070 4.503645 -4.758022 -2.881268 -1.508924 -63.436557 -2.305756 -59.900397 -128.515856 -75.256459 -0.000001 0.000004 -0.000007 44.417837 -17.448118 5.225807 0.000002 0.000008 -3.011899 -4.999749 -7.998920 -0.000013 -8.835899 70.153576 11.142727 106.284410 51.858580 -88.641485 0.000004 0.000001 0.000003 41.579374 22.176776 -7.343099 0.000008 -0.000007 3.014129 -4.999681 7.999513 0.000219 -90.054644 -168.712025 -7.915399 179.999991 0.000005 -0.730006 97.885777 7.100523 1.447970 -0.000007 0.000004 1.044280 62.535197 3.812908 9.312177 25.459452 -7.351850 0.003801 -86.850104 179.313257 -2.947981 0.000011 -0.000005 -1.381880 -84.267227 -1.553673 1.368897 -0.000003 0.000000 -1.670239 63.271471 -5.615513 -5.351613 25.457660 7.355617 -0.001123 
